<svg width="62" height="32" viewBox="0 0 62 32" fill="none" xmlns="http://www.w3.org/2000/svg">
<circle cx="46" cy="16" r="16" fill="white"/>
<path fill-rule="evenodd" clip-rule="evenodd" d="M46.498 22.6743V28.7023L39 18.3233L46.498 22.6743ZM46.498 28.7023V22.6753L54 18.3233L46.498 28.7023Z" fill="#708B96"/>
<path fill-rule="evenodd" clip-rule="evenodd" d="M39 16.9273L46.498 4.70731V13.5773L39 16.9273ZM39 16.9273L46.498 21.2803V13.5793L39 16.9273ZM46.498 13.5773V4.70731L53.995 16.9273L46.498 13.5773ZM53.995 16.9273L46.498 21.2803V13.5793L53.995 16.9273Z" fill="#333333"/>
<circle cx="16" cy="16" r="15.53" fill="#252736" stroke="#F6C09A"/>
<path d="M5.17497 12.6774C5.06933 12.5973 5.06956 12.4383 5.17545 12.3585L16.0706 4.14004C16.1433 4.08521 16.2438 4.0864 16.3152 4.14295L26.6916 12.3636C26.7915 12.4428 26.7928 12.5941 26.6942 12.675L16.4757 21.0615C16.4041 21.1203 16.3016 21.1222 16.2279 21.0662L5.17497 12.6774Z" fill="#252736" stroke="#F6C09A" stroke-linejoin="round"/>
<path d="M26.8055 12.7047C26.8055 12.5354 26.6082 12.4427 26.4779 12.5507L15.9976 21.2351C15.9516 21.2732 15.9251 21.3298 15.9252 21.3894L15.9349 28.5672C15.9351 28.7337 16.1268 28.827 16.258 28.7245L26.7286 20.5456C26.7771 20.5077 26.8055 20.4496 26.8055 20.388V12.7047Z" fill="#252736"/>
<path d="M26.8055 12.7047C26.8055 12.5354 26.6082 12.4427 26.4779 12.5507L15.9976 21.2351C15.9516 21.2732 15.9251 21.3298 15.9252 21.3894L15.9349 28.5672C15.9351 28.7337 16.1268 28.827 16.258 28.7245L26.7286 20.5456C26.7771 20.5077 26.8055 20.4496 26.8055 20.388V12.7047Z" fill="#252736"/>
<path d="M26.8055 12.7047C26.8055 12.5354 26.6082 12.4427 26.4779 12.5507L15.9976 21.2351C15.9516 21.2732 15.9251 21.3298 15.9252 21.3894L15.9349 28.5672C15.9351 28.7337 16.1268 28.827 16.258 28.7245L26.7286 20.5456C26.7771 20.5077 26.8055 20.4496 26.8055 20.388V12.7047Z" fill="#252736"/>
<path d="M26.8055 12.7047C26.8055 12.5354 26.6082 12.4427 26.4779 12.5507L15.9976 21.2351C15.9516 21.2732 15.9251 21.3298 15.9252 21.3894L15.9349 28.5672C15.9351 28.7337 16.1268 28.827 16.258 28.7245L26.7286 20.5456C26.7771 20.5077 26.8055 20.4496 26.8055 20.388V12.7047Z" fill="#252736"/>
<path d="M26.7286 20.5456L16.258 28.7245C16.1268 28.827 15.9351 28.7337 15.9349 28.5672L15.9252 21.3894C15.9251 21.3298 15.9516 21.2732 15.9976 21.2351L26.4779 12.5507C26.6082 12.4427 26.8055 12.5354 26.8055 12.7047V20.388C26.8055 20.4496 26.7771 20.5077 26.7286 20.5456Z" stroke="#F6C09A" fill="#252736"/>
<path d="M15.9859 6.49577C16.0638 6.36789 16.2495 6.36789 16.3274 6.49577L27.2494 24.4156C27.3306 24.5488 27.2347 24.7197 27.0786 24.7197H5.23464C5.07856 24.7197 4.98263 24.5488 5.06386 24.4156L15.9859 6.49577Z" fill="#252736" stroke="#F6C09A" stroke-linejoin="round"/>
<path d="M5.05291 12.7C5.05291 12.5315 5.24851 12.4385 5.37918 12.5449L16.0532 21.235C16.1 21.2731 16.1271 21.3303 16.127 21.3906L16.1101 28.5716C16.1097 28.7372 15.9196 28.8306 15.7883 28.7297L5.13109 20.5456C5.0818 20.5078 5.05291 20.4492 5.05291 20.387V12.7Z" fill="#252736"/>
<path d="M5.05291 12.7C5.05291 12.5315 5.24851 12.4385 5.37918 12.5449L16.0532 21.235C16.1 21.2731 16.1271 21.3303 16.127 21.3906L16.1101 28.5716C16.1097 28.7372 15.9196 28.8306 15.7883 28.7297L5.13109 20.5456C5.0818 20.5078 5.05291 20.4492 5.05291 20.387V12.7Z" fill="#252736"/>
<path d="M5.05291 12.7C5.05291 12.5315 5.24851 12.4385 5.37918 12.5449L16.0532 21.235C16.1 21.2731 16.1271 21.3303 16.127 21.3906L16.1101 28.5716C16.1097 28.7372 15.9196 28.8306 15.7883 28.7297L5.13109 20.5456C5.0818 20.5078 5.05291 20.4492 5.05291 20.387V12.7Z" fill="#252736"/>
<path d="M5.05291 12.7C5.05291 12.5315 5.24851 12.4385 5.37918 12.5449L16.0532 21.235C16.1 21.2731 16.1271 21.3303 16.127 21.3906L16.1101 28.5716C16.1097 28.7372 15.9196 28.8306 15.7883 28.7297L5.13109 20.5456C5.0818 20.5078 5.05291 20.4492 5.05291 20.387V12.7Z" fill="#252736"/>
<path d="M5.13109 20.5456L15.7883 28.7297C15.9196 28.8306 16.1097 28.7372 16.1101 28.5716L16.127 21.3906C16.1271 21.3303 16.1 21.2731 16.0532 21.235L5.37918 12.5449C5.24851 12.4385 5.05291 12.5315 5.05291 12.7V20.387C5.05291 20.4492 5.0818 20.5078 5.13109 20.5456Z" stroke="#F6C09A" fill="#252736"/>
<path d="M16.1567 4.15121V0.916481" stroke="#F6C09A"/>
<line x1="16.1082" y1="28.3257" x2="16.1082" y2="32.5972" stroke="#F6C09A"/>
</svg>
